<?xml version="1.0" standalone="no"?>
<!DOCTYPE svg PUBLIC "-//W3C//DTD SVG 20010904//EN"
 "http://www.w3.org/TR/2001/REC-SVG-20010904/DTD/svg10.dtd">
<svg version="1.0" xmlns="http://www.w3.org/2000/svg"
 width="710.000000pt" height="710.000000pt" viewBox="0 0 710.000000 710.000000"
 preserveAspectRatio="xMidYMid meet">
<metadata>
Created by potrace 1.11, written by Peter Selinger 2001-2013
</metadata>
<g transform="translate(0.000000,710.000000) scale(0.100000,-0.100000)"
fill="#000000" stroke="none">
<path d="M4524 6892 c-168 -140 -273 -315 -339 -565 -35 -133 -48 -246 -43
-355 6 -102 11 -121 138 -484 45 -129 55 -172 81 -355 46 -331 80 -415 215
-541 123 -116 270 -193 460 -243 79 -21 110 -24 274 -23 202 1 250 9 415 73
419 161 752 569 772 946 10 182 -11 227 -223 482 -389 470 -905 832 -1501
1056 -181 68 -179 68 -249 9z"/>
<path d="M1905 6697 c-210 -111 -418 -247 -591 -388 -115 -93 -284 -251 -353
-329 l-64 -72 19 -36 c32 -61 119 -146 177 -175 69 -33 114 -43 263 -58 65 -6
172 -22 238 -35 203 -41 302 -28 358 47 42 55 48 93 45 264 -2 187 0 194 107
349 37 52 73 110 81 130 24 57 19 132 -14 201 -29 61 -114 165 -134 165 -7 0
-66 -29 -132 -63z"/>
<path d="M6673 4379 c-52 -25 -103 -81 -140 -151 -25 -48 -28 -63 -28 -153 0
-89 3 -106 28 -157 24 -48 46 -71 150 -154 171 -137 192 -148 275 -142 37 3
84 14 105 24 l39 18 -7 96 c-11 158 -34 338 -63 480 l-27 135 -51 -3 c-28 -1
-84 4 -123 13 -94 20 -108 19 -158 -6z"/>
<path d="M1013 4299 c-46 -10 -113 -33 -150 -50 -38 -16 -101 -44 -140 -60
-135 -57 -152 -109 -79 -250 24 -46 51 -115 60 -153 22 -91 36 -116 92 -165
61 -53 136 -81 223 -81 91 0 163 23 213 68 50 45 58 65 68 177 7 71 16 106 44
167 47 101 48 151 4 238 -19 37 -49 77 -71 94 -34 27 -47 31 -110 33 -43 1
-106 -6 -154 -18z"/>
<path d="M2280 3997 c-115 -47 -235 -149 -279 -236 -36 -69 -29 -124 28 -232
27 -52 58 -129 69 -171 36 -141 76 -178 192 -178 95 0 190 24 299 74 53 24
124 56 159 71 72 32 118 79 128 131 17 91 -19 225 -82 309 -46 59 -212 197
-278 230 -67 33 -158 34 -236 2z"/>
<path d="M4721 2849 c-14 -5 -68 -41 -120 -78 -53 -38 -128 -85 -168 -105
-120 -60 -173 -118 -173 -191 0 -48 17 -86 83 -183 41 -62 60 -103 77 -165 35
-133 41 -148 78 -189 71 -78 188 -118 349 -118 169 0 252 30 308 112 37 54 94
299 102 440 7 106 -15 151 -111 227 -39 31 -111 95 -159 143 -49 48 -104 94
-122 102 -37 18 -107 20 -144 5z"/>
<path d="M6538 2536 c-101 -42 -214 -139 -244 -212 -25 -59 -18 -106 30 -196
23 -46 51 -116 61 -156 28 -115 70 -152 172 -152 97 0 99 1 158 120 62 123
121 259 169 390 l34 91 -61 50 c-34 27 -80 58 -103 69 -56 28 -143 26 -216 -4z"/>
<path d="M843 2165 c-47 -8 -118 -35 -210 -78 -76 -36 -163 -73 -193 -82 -30
-10 -59 -21 -63 -25 -25 -22 238 -449 397 -645 22 -27 69 -82 103 -122 56 -63
69 -73 114 -82 87 -19 171 -14 209 12 70 47 75 62 76 225 1 170 2 175 95 311
53 79 63 101 67 146 5 64 -25 140 -82 203 -47 51 -151 120 -212 138 -58 17
-203 17 -301 -1z"/>
<path d="M2510 1285 c-146 -40 -315 -155 -397 -270 -77 -108 -133 -290 -133
-432 0 -46 9 -97 27 -156 l27 -89 55 -25 c405 -181 878 -295 1265 -306 l90 -2
17 55 c21 67 24 167 5 235 -15 55 -141 349 -212 492 -82 165 -307 414 -429
474 -63 31 -79 34 -165 36 -60 2 -115 -3 -150 -12z"/>
</g>
</svg>
